<svg xmlns="http://www.w3.org/2000/svg" version="1.1" xmlns:xlink="http://www.w3.org/1999/xlink" xmlns:svgjs="http://svgjs.dev/svgjs" width="1000" height="1000" viewBox="0 0 1000 1000"><rect width="1000" height="1000" fill="#ffffff"></rect><g transform="matrix(0.7,0,0,0.7,149.5757662538831,351.0215961977748)"><svg viewBox="0 0 396 169" data-background-color="#ffffff" preserveAspectRatio="xMidYMid meet" height="426" width="1000" xmlns="http://www.w3.org/2000/svg" xmlns:xlink="http://www.w3.org/1999/xlink"><g id="tight-bounds" transform="matrix(1,0,0,1,0.2399951235354365,-0.06835969387347518)"><svg viewBox="0 0 395.52 169.13727236129114" height="169.13727236129114" width="395.52"><g><svg viewBox="0 0 395.52 169.13727236129114" height="169.13727236129114" width="395.52"><g transform="matrix(1,0,0,1,0,101.7338620905167)"><svg viewBox="0 0 395.52 67.40341027077446" height="67.40341027077446" width="395.52"><g id="textblocktransform"><svg viewBox="0 0 395.52 67.40341027077446" height="67.40341027077446" width="395.52" id="textblock"><g><svg viewBox="0 0 395.52 36.35417872340425" height="36.35417872340425" width="395.52"><g transform="matrix(1,0,0,1,0,0)"><svg width="395.52" viewBox="1.2200000286102295 -30.979999542236328 344.2099914550781 31.639999389648438" height="36.35417872340425" data-palette-color="#1c4b82"><path d="M1.22-28.52L5.66-27.49 5.66-2.95 1.59-1.81 1.39 0 26.17 0 26.9-7.64 24.88-7.96 22.49-2.34 10.4-2.34 10.4-14.23 17.09-14.23 17.92-9.96 20-10.28 20.83-19.78 18.51-19.43 17.48-16.5 10.4-16.5 10.4-28.13 21.9-28.13 22.9-22.88 25.02-22.56 25.78-30.37 1.49-30.37 1.22-28.52ZM27.66 0L51.83 0 52.73-8.08 50.66-8.4 47.46-2.34 36.67-2.34 36.67-27.37 40.84-28.52 41.09-30.37 27.66-30.37 27.34-28.52 31.93-27.27 31.93-2.95 27.88-1.81 27.66 0ZM53.46-28.52L57.91-27.49 57.91-2.95 53.83-1.81 53.63 0 78.41 0 79.15-7.64 77.12-7.96 74.73-2.34 62.64-2.34 62.64-14.23 69.33-14.23 70.16-9.96 72.24-10.28 73.07-19.78 70.75-19.43 69.72-16.5 62.64-16.5 62.64-28.13 74.14-28.13 75.14-22.88 77.27-22.56 78.02-30.37 53.73-30.37 53.46-28.52ZM77.97-28.52L81.56-27.49 91.76 0.59 95.48-0.1 105.85-27.59 109.07-28.52 109.25-30.37 98.14-30.37 97.97-28.52 102.41-27.49 94.6-6.13 86.96-27.59 91.11-28.52 91.35-30.37 78.22-30.37 77.97-28.52ZM109.19 0L120.62 0 120.89-1.95 116.35-3.03 118.81-10.55 129.04-10.55 131.7-3.15 127.53-1.81 127.24 0 139.81 0 140.03-1.95 136.68-3.03 127.16-30.96 123.48-30.2 113.05-3.15 109.41-1.81 109.19 0ZM119.74-13.04L124.28-25.24 128.33-13.04 119.74-13.04ZM141.59-30.37L141.78-22.51 144.01-22.19 145.3-28.13 152.5-28.13 152.5-2.95 148.38-1.81 148.21 0 161.36 0 161.71-1.95 157.19-2.78 157.19-28.13 164.64-28.13 165.56-22.49 167.88-22.12 168.71-30.37 141.59-30.37ZM169.57-28.52L174.01-27.49 174.01-2.95 169.93-1.81 169.74 0 194.52 0 195.25-7.64 193.22-7.96 190.83-2.34 178.74-2.34 178.74-14.23 185.43-14.23 186.26-9.96 188.34-10.28 189.17-19.78 186.85-19.43 185.82-16.5 178.74-16.5 178.74-28.13 190.24-28.13 191.24-22.88 193.37-22.56 194.13-30.37 169.83-30.37 169.57-28.52ZM211.85 0.59Q214.65 0.59 217.16-0.57 219.66-1.73 221.18-3.86 222.71-5.98 222.71-8.72L222.71-8.72Q222.71-10.67 221.71-12.11 220.71-13.55 219.27-14.54 217.83-15.53 215.39-16.82L215.39-16.82Q213.04-18.09 211.69-18.99 210.33-19.9 209.39-21.22 208.45-22.53 208.45-24.29L208.45-24.29Q208.45-26.59 209.7-27.76 210.94-28.93 212.9-28.93L212.9-28.93Q213.8-28.93 214.68-28.55 215.56-28.17 216.18-27.62 216.8-27.08 217.05-26.61L217.05-26.61 217.66-21.95 220.07-21.66Q220.15-22.71 220.34-25.05 220.54-27.39 220.61-28.54L220.61-28.54Q217.68-30.98 213.73-30.98L213.73-30.98Q211.26-30.98 209.09-29.96 206.91-28.93 205.57-26.98 204.23-25.02 204.23-22.36L204.23-22.36Q204.23-20.07 205.34-18.38 206.45-16.7 208.02-15.61 209.6-14.53 212.16-13.16L212.16-13.16Q214.24-12.04 215.42-11.25 216.61-10.47 217.41-9.41 218.22-8.35 218.22-7.01L218.22-7.01Q218.22-5.3 217.35-4.15 216.48-3 215.15-2.44 213.82-1.88 212.43-1.88L212.43-1.88Q210.82-1.88 209.46-2.59 208.11-3.3 207.4-4.32L207.4-4.32 206.45-8.91 203.96-9.25 203.64-2.25Q204.89-1.03 207.1-0.22 209.31 0.59 211.85 0.59L211.85 0.59ZM228.13-27.49L228.13-11.45Q228.13-4.49 231.51-1.92 234.89 0.66 240.11 0.66L240.11 0.66Q246.39 0.66 249.34-2.61 252.3-5.88 252.35-12.57L252.35-12.57 252.47-27.59 256.52-28.52 256.79-30.37 245.12-30.37 244.87-28.52 249.34-27.49 249.27-11.77Q249.25-7.1 247.19-4.83 245.14-2.56 241.33-2.56L241.33-2.56Q237.4-2.56 235.12-4.99 232.84-7.42 232.84-12.45L232.84-12.45 232.84-27.59 236.96-28.52 237.18-30.37 223.95-30.37 223.63-28.52 228.13-27.49ZM257.74-28.52L262.18-27.49 262.18-2.95 258.1-1.81 257.91 0 271.09 0 271.34-1.95 266.92-2.78 266.92-27.59 271.04-28.52 271.29-30.37 258.01-30.37 257.74-28.52ZM271.75-30.37L271.95-22.51 274.17-22.19 275.46-28.13 282.66-28.13 282.66-2.95 278.54-1.81 278.37 0 291.53 0 291.87-1.95 287.35-2.78 287.35-28.13 294.8-28.13 295.72-22.49 298.04-22.12 298.87-30.37 271.75-30.37ZM299.73-28.52L304.17-27.49 304.17-2.95 300.09-1.81 299.9 0 324.68 0 325.41-7.64 323.38-7.96 320.99-2.34 308.91-2.34 308.91-14.23 315.6-14.23 316.43-9.96 318.5-10.28 319.33-19.78 317.01-19.43 315.99-16.5 308.91-16.5 308.91-28.13 320.4-28.13 321.41-22.88 323.53-22.56 324.29-30.37 299.99-30.37 299.73-28.52ZM334.56 0.59Q337.37 0.59 339.87-0.57 342.37-1.73 343.9-3.86 345.43-5.98 345.43-8.72L345.43-8.72Q345.43-10.67 344.43-12.11 343.42-13.55 341.98-14.54 340.54-15.53 338.1-16.82L338.1-16.82Q335.76-18.09 334.4-18.99 333.05-19.9 332.11-21.22 331.17-22.53 331.17-24.29L331.17-24.29Q331.17-26.59 332.41-27.76 333.66-28.93 335.61-28.93L335.61-28.93Q336.52-28.93 337.39-28.55 338.27-28.17 338.9-27.62 339.52-27.08 339.76-26.61L339.76-26.61 340.37-21.95 342.79-21.66Q342.86-22.71 343.06-25.05 343.25-27.39 343.33-28.54L343.33-28.54Q340.4-30.98 336.44-30.98L336.44-30.98Q333.98-30.98 331.8-29.96 329.63-28.93 328.29-26.98 326.95-25.02 326.95-22.36L326.95-22.36Q326.95-20.07 328.06-18.38 329.17-16.7 330.74-15.61 332.32-14.53 334.88-13.16L334.88-13.16Q336.95-12.04 338.14-11.25 339.32-10.47 340.13-9.41 340.93-8.35 340.93-7.01L340.93-7.01Q340.93-5.3 340.07-4.15 339.2-3 337.87-2.44 336.54-1.88 335.15-1.88L335.15-1.88Q333.54-1.88 332.18-2.59 330.83-3.3 330.12-4.32L330.12-4.32 329.17-8.91 326.68-9.25 326.36-2.25Q327.6-1.03 329.81-0.22 332.02 0.59 334.56 0.59L334.56 0.59Z" opacity="1" transform="matrix(1,0,0,1,0,0)" fill="#000000" class="wordmark-text-0" data-fill-palette-color="primary" id="text-0"></path></svg></g></svg></g><g transform="matrix(1,0,0,1,0,44.93652781971063)"><svg viewBox="0 0 395.52 22.466882451063828" height="22.466882451063828" width="395.52"><g transform="matrix(1,0,0,1,0,0)"><svg width="395.52" viewBox="1.0499999523162842 -38.650001525878906 900.4771728515625 51.150001525878906" height="22.466882451063828" data-palette-color="#1c4b82"><path d="M1.05-33.9L1.05-35 27.05-35 27.55-25.1 26.65-25.1Q24.55-30.15 22.25-32.02 19.95-33.9 15.5-33.9L15.5-33.9 13.75-33.9 13.75-18.45 15.45-18.45Q17.8-18.45 19.4-20.23 21-22 21.65-25L21.65-25 22.4-25 22.4-10.2 21.55-10.2Q20.65-13.95 19.13-15.55 17.6-17.15 14.95-17.15L14.95-17.15 13.75-17.15 13.75-1.1 15.65-1.1Q20.25-1.1 23.48-3.85 26.7-6.6 27.9-10.9L27.9-10.9 28.9-10.9 28.5 0 1.05 0 1.05-1.1 4-1.1 4-33.9 1.05-33.9ZM51.76-36.6L51.76-37.5 64.01-37.5 64.01-0.9 66.81-0.9 66.81 0 51.96 0 51.96-0.9 54.71-0.9 54.71-36.6 51.76-36.6ZM101.17 0.5Q94.72 0.5 91.5-2.83 88.27-6.15 88.27-12.08 88.27-18 91.9-21.15 95.52-24.3 101.12-24.3L101.12-24.3Q112.47-24.3 112.02-12.9L112.02-12.9 97.92-12.9 97.92-10.95Q97.92-6.05 99.17-3.55 100.42-1.05 103.52-1.05L103.52-1.05Q109.32-1.05 111.12-7.25L111.12-7.25 112.02-7.1Q111.07-3.5 108.6-1.5 106.12 0.5 101.17 0.5L101.17 0.5ZM97.97-16.35L97.97-13.9 103.12-13.9 103.12-16.35Q103.12-20.4 102.65-21.88 102.17-23.35 100.75-23.35 99.32-23.35 98.65-21.78 97.97-20.2 97.97-16.35L97.97-16.35ZM134.39-22.9L132.34-22.9 132.34-23.8 147.29-23.8 147.29-22.9 144.14-22.9 150.14-6.3 155.54-22.9 152.19-22.9 152.19-23.8 158.94-23.8 158.94-22.9 156.74-22.9 149.34 0 143.64 0 134.39-22.9ZM190.2-11.75L190.2-11.75 191.65-11.75 191.65-15.6Q191.65-20.35 191.12-21.98 190.6-23.6 189.1-23.6L189.1-23.6Q188.2-23.6 187.47-23.13 186.75-22.65 186.75-21.83 186.75-21 187.05-20.15L187.05-20.15 188.3-20.15Q188.7-19.1 188.7-17.63 188.7-16.15 187.45-15.08 186.2-14 184.3-14L184.3-14Q180-14 180-18.15L180-18.15Q180-24.3 190.45-24.3L190.45-24.3Q196.4-24.3 198.67-22.28 200.95-20.25 200.95-14.85L200.95-14.85 200.95-4.7Q200.95-2.1 202.4-2.1L202.4-2.1Q204.1-2.1 204.4-7.25L204.4-7.25 205.15-7.2Q204.95-2.8 203.5-1.15 202.05 0.5 198.75 0.5L198.75 0.5Q192.75 0.5 191.85-3.2L191.85-3.2Q191.2-1.3 189.9-0.4 188.6 0.5 186.1 0.5L186.1 0.5Q178.7 0.5 178.7-5.55L178.7-5.55Q178.7-9.1 181.52-10.43 184.35-11.75 190.2-11.75ZM188.2-5.6Q188.2-3 188.47-2.25 188.75-1.5 189.52-1.5 190.3-1.5 190.97-2.78 191.65-4.05 191.65-6.3L191.65-6.3 191.65-10.95 191.3-10.95Q188.2-10.95 188.2-6.4L188.2-6.4 188.2-5.6ZM227.66-7.15L227.66-7.15 227.66-22.9 224.91-22.9 224.91-23.8 227.66-23.8 227.66-30.25 236.96-32.55 236.96-23.8 243.46-23.8 243.46-22.9 236.96-22.9 236.96-6.05Q236.96-3.7 237.44-2.6 237.91-1.5 239.41-1.5 240.91-1.5 242.04-3 243.16-4.5 243.51-7.1L243.51-7.1 244.36-7Q243.96-3.55 242.16-1.53 240.36 0.5 236.21 0.5 232.06 0.5 229.86-1.15 227.66-2.8 227.66-7.15ZM278.27 0.5Q271.82 0.5 268.6-2.83 265.37-6.15 265.37-12.08 265.37-18 269-21.15 272.62-24.3 278.22-24.3L278.22-24.3Q289.57-24.3 289.12-12.9L289.12-12.9 275.02-12.9 275.02-10.95Q275.02-6.05 276.27-3.55 277.52-1.05 280.62-1.05L280.62-1.05Q286.42-1.05 288.22-7.25L288.22-7.25 289.12-7.1Q288.17-3.5 285.7-1.5 283.22 0.5 278.27 0.5L278.27 0.5ZM275.07-16.35L275.07-13.9 280.22-13.9 280.22-16.35Q280.22-20.4 279.75-21.88 279.27-23.35 277.85-23.35 276.42-23.35 275.75-21.78 275.07-20.2 275.07-16.35L275.07-16.35ZM342.25-22.9L340.2-22.9 340.2-23.8 354.7-23.8 354.7-22.9 352-22.9 357.45-6.3 363.25-22.9 359.9-22.9 359.9-23.8 366.95-23.8 366.95-22.9 364.45-22.9 355.1 4.05Q353.45 8.75 351.4 10.63 349.35 12.5 346.4 12.5 343.45 12.5 341.75 11.15 340.05 9.8 340.05 7.7 340.05 5.6 341.15 4.5 342.25 3.4 344.05 3.4L344.05 3.4Q348.2 3.4 348.2 6.85L348.2 6.85Q348.2 7.6 347.9 8.65L347.9 8.65 346.15 8.65Q345.75 9.8 346.05 10.55 346.35 11.3 347.4 11.3L347.4 11.3Q349.45 11.3 351.05 9.28 352.65 7.25 354.1 3.1L354.1 3.1 355.2 0 350.8 0 342.25-22.9ZM402.21-9.85L402.21-9.85 402.21-14.1Q402.21-18.95 401.69-21.18 401.16-23.4 399.26-23.4L399.26-23.4Q398.16-23.4 397.49-22.78 396.81-22.15 396.51-20.7L396.51-20.7Q396.06-18.45 396.06-13.85L396.06-13.85 396.06-9.95Q396.06-4.5 396.39-3.4 396.71-2.3 397.06-1.6L397.06-1.6Q397.61-0.4 399.21-0.4L399.21-0.4Q401.16-0.4 401.76-2.65L401.76-2.65Q402.21-4.25 402.21-9.85ZM399.11 0.5Q392.86 0.5 389.66-2.7 386.46-5.9 386.46-11.88 386.46-17.85 389.89-21.08 393.31-24.3 399.51-24.3 405.71-24.3 408.76-21.33 411.81-18.35 411.81-12.25L411.81-12.25Q411.81 0.5 399.11 0.5L399.11 0.5ZM462.72-0.9L462.72 0 451.32 0 450.77-3.65Q449.97-1.65 448.4-0.58 446.82 0.5 443.72 0.5L443.72 0.5Q435.97 0.5 435.97-7.85L435.97-7.85 435.97-22.9 433.17-22.9 433.17-23.8 445.27-23.8 445.27-6.65Q445.27-3.65 445.7-2.7 446.12-1.75 447.4-1.75 448.67-1.75 449.67-3.3 450.67-4.85 450.67-7.6L450.67-7.6 450.67-22.9 448.37-22.9 448.37-23.8 459.97-23.8 459.97-0.9 462.72-0.9ZM500.68-22.4L500.68-22.4Q498.83-22.4 497.43-20 496.03-17.6 496.03-14.3L496.03-14.3 496.03-0.9 499.58-0.9 499.58 0 483.98 0 483.98-0.9 486.73-0.9 486.73-22.9 483.98-22.9 483.98-23.8 496.03-23.8 496.03-19Q496.68-21.55 498.53-22.93 500.38-24.3 502.73-24.3 505.08-24.3 506.56-22.98 508.03-21.65 508.03-19.23 508.03-16.8 506.93-15.5 505.83-14.2 503.56-14.2 501.28-14.2 500.21-15.7 499.13-17.2 499.93-19.85L499.93-19.85 501.73-19.85Q502.98-22.4 500.68-22.4ZM558.06-36.6L558.06-37.5 570.31-37.5 570.31-0.9 573.11-0.9 573.11 0 558.26 0 558.26-0.9 561.01-0.9 561.01-36.6 558.06-36.6ZM601.67-27.25Q599.02-27.25 597.9-28.6 596.77-29.95 596.77-31.95 596.77-33.95 598-35.25 599.22-36.55 601.72-36.55 604.22-36.55 605.52-35.38 606.82-34.2 606.82-32.02 606.82-29.85 605.57-28.55 604.32-27.25 601.67-27.25ZM594.12-22.9L594.12-23.8 606.37-23.8 606.37-0.9 609.17-0.9 609.17 0 594.32 0 594.32-0.9 597.07-0.9 597.07-22.9 594.12-22.9ZM645.58-37.8L645.58-37.8Q643.68-37.8 643.08-36.38 642.48-34.95 642.48-31.8L642.48-31.8 642.48-23.8 649.08-23.8 649.08-22.9 642.48-22.9 642.48-0.9 648.58-0.9 648.58 0 630.43 0 630.43-0.9 633.18-0.9 633.18-22.9 630.28-22.9 630.28-23.8 633.18-23.8 633.18-24Q633.18-31.2 635.93-34.93 638.68-38.65 645.13-38.65L645.13-38.65Q649.38-38.65 651.23-36.98 653.08-35.3 653.08-33.1 653.08-30.9 651.93-29.8 650.78-28.7 648.88-28.7 646.98-28.7 645.96-29.68 644.93-30.65 644.93-31.93 644.93-33.2 645.23-34.4L645.23-34.4 647.13-34.4Q648.13-37.8 645.58-37.8ZM682 0.5Q675.55 0.5 672.32-2.83 669.1-6.15 669.1-12.08 669.1-18 672.72-21.15 676.35-24.3 681.95-24.3L681.95-24.3Q693.3-24.3 692.85-12.9L692.85-12.9 678.75-12.9 678.75-10.95Q678.75-6.05 680-3.55 681.25-1.05 684.35-1.05L684.35-1.05Q690.15-1.05 691.95-7.25L691.95-7.25 692.85-7.1Q691.9-3.5 689.42-1.5 686.95 0.5 682 0.5L682 0.5ZM678.8-16.35L678.8-13.9 683.95-13.9 683.95-16.35Q683.95-20.4 683.47-21.88 683-23.35 681.57-23.35 680.15-23.35 679.47-21.78 678.8-20.2 678.8-16.35L678.8-16.35ZM716.16 0.5L715.56 0.5 715.56-8.45 716.16-8.45Q717.46-4.1 719.66-2.35 721.86-0.6 725.16-0.6L725.16-0.6Q730.26-0.6 730.26-3.85L730.26-3.85Q730.26-5.25 729.01-5.95L729.01-5.95Q727.06-7.05 724.01-7.65L724.01-7.65Q720.61-8.55 718.31-10.05L718.31-10.05Q715.56-11.85 715.56-15.75 715.56-19.65 717.96-21.98 720.36-24.3 724.36-24.3L724.36-24.3Q726.81-24.3 729.41-23.15L729.41-23.15Q730.36-22.75 730.86-22.75 731.36-22.75 731.71-23.1 732.06-23.45 732.56-24.4L732.56-24.4 733.11-24.4 733.11-16.75 732.51-16.75Q729.96-23.25 724.61-23.25L724.61-23.25Q722.26-23.25 721.11-22.43 719.96-21.6 719.96-20.35L719.96-20.35Q719.96-19.6 720.31-19.18 720.66-18.75 720.86-18.55 721.06-18.35 721.51-18.13 721.96-17.9 722.26-17.78 722.56-17.65 723.18-17.45 723.81-17.25 724.11-17.2L724.11-17.2Q727.51-16.35 729.01-15.73 730.51-15.1 731.86-14.2L731.86-14.2Q734.61-12.3 734.61-8.08 734.61-3.85 732.11-1.68 729.61 0.5 725.26 0.5L725.26 0.5Q722.16 0.5 719.26-0.95L719.26-0.95Q718.66-1.35 718.31-1.35L718.31-1.35Q717.21-1.35 716.16 0.5L716.16 0.5ZM758.37-7.15L758.37-7.15 758.37-22.9 755.62-22.9 755.62-23.8 758.37-23.8 758.37-30.25 767.67-32.55 767.67-23.8 774.17-23.8 774.17-22.9 767.67-22.9 767.67-6.05Q767.67-3.7 768.15-2.6 768.62-1.5 770.12-1.5 771.62-1.5 772.75-3 773.87-4.5 774.22-7.1L774.22-7.1 775.07-7Q774.67-3.55 772.87-1.53 771.07 0.5 766.92 0.5 762.77 0.5 760.57-1.15 758.37-2.8 758.37-7.15ZM797.13-22.9L795.08-22.9 795.08-23.8 809.58-23.8 809.58-22.9 806.88-22.9 812.33-6.3 818.13-22.9 814.78-22.9 814.78-23.8 821.83-23.8 821.83-22.9 819.33-22.9 809.98 4.05Q808.33 8.75 806.28 10.63 804.23 12.5 801.28 12.5 798.33 12.5 796.63 11.15 794.93 9.8 794.93 7.7 794.93 5.6 796.03 4.5 797.13 3.4 798.93 3.4L798.93 3.4Q803.08 3.4 803.08 6.85L803.08 6.85Q803.08 7.6 802.78 8.65L802.78 8.65 801.03 8.65Q800.63 9.8 800.93 10.55 801.23 11.3 802.28 11.3L802.28 11.3Q804.33 11.3 805.93 9.28 807.53 7.25 808.98 3.1L808.98 3.1 810.08 0 805.68 0 797.13-22.9ZM841.24-36.6L841.24-37.5 853.49-37.5 853.49-0.9 856.29-0.9 856.29 0 841.44 0 841.44-0.9 844.19-0.9 844.19-36.6 841.24-36.6ZM890.66 0.5Q884.21 0.5 880.98-2.83 877.76-6.15 877.76-12.08 877.76-18 881.38-21.15 885.01-24.3 890.61-24.3L890.61-24.3Q901.96-24.3 901.51-12.9L901.51-12.9 887.41-12.9 887.41-10.95Q887.41-6.05 888.66-3.55 889.91-1.05 893.01-1.05L893.01-1.05Q898.81-1.05 900.61-7.25L900.61-7.25 901.51-7.1Q900.56-3.5 898.08-1.5 895.61 0.5 890.66 0.5L890.66 0.5ZM887.46-16.35L887.46-13.9 892.61-13.9 892.61-16.35Q892.61-20.4 892.13-21.88 891.66-23.35 890.23-23.35 888.81-23.35 888.13-21.78 887.46-20.2 887.46-16.35L887.46-16.35Z" opacity="1" transform="matrix(1,0,0,1,0,0)" fill="#000000" class="slogan-text-1" data-fill-palette-color="secondary" id="text-1"></path></svg></g></svg></g></svg></g></svg></g><g transform="matrix(1,0,0,1,96.83819059866981,0)"><svg viewBox="0 0 201.84361880266036 93.15151299421031" height="93.15151299421031" width="201.84361880266036"><g><svg xmlns="http://www.w3.org/2000/svg" xmlns:xlink="http://www.w3.org/1999/xlink" xml:space="preserve" style="shape-rendering:geometricPrecision;text-rendering:geometricPrecision;image-rendering:optimizeQuality;" viewBox="0.0000020265579223632812 0.0000027120113372802734 14.727499008178711 7.38195276260376" x="8" y="0" fill-rule="evenodd" clip-rule="evenodd" width="185.84361880266036" height="93.15151299421031" class="icon-icon-0" data-fill-palette-color="accent" id="icon-0"><g fill="#1c4b82" data-fill-palette-color="accent"><path class="" d="M1.757 3.091c-0.313 0.444-0.296 1.331-0.417 1.95-0.153 0.784-0.711 1.203-1.34 1.534 0.188-0.771 0.348-1.542 0.412-2.313 0.078-0.953-0.06-0.891 0.767-1.575 1.159-0.961 3.04-1.741 5.848-2.29 2.456-0.406 5.049-0.453 7.701-0.351-0.89 1.809-3.733 1.961-7.203 1.581-1.811 0.02-3.495-0.488-5.768 1.464z m8.33 2.781c-3.895 2.038-7.803-2.284-9.165 0.688 2.104-1.831 5.079 3.183 9.165-0.688z m2.489-2.547c-4.49 2.72-9.502-0.792-10.907 1.859 3.412-1.235 7.765 2.753 10.907-1.859z m0.834-1.478c-3.944 1.761-10.043-1.402-11.565 2.239 3.106-1.808 8.446 1.438 11.565-2.239z" fill="#000000" data-fill-palette-color="accent"></path></g></svg></g></svg></g><g><rect width="96.83819059866981" height="3.278457354789038" y="88.87305563942127" x="298.68180940133016" fill="#000000" data-fill-palette-color="accent"></rect><rect width="96.83819059866981" height="3.278457354789038" y="88.87305563942127" x="0" fill="#000000" data-fill-palette-color="accent"></rect><rect width="96.83819059866981" height="3.278457354789038" y="82.31614092984319" x="298.68180940133016" fill="#000000" data-fill-palette-color="accent"></rect><rect width="96.83819059866981" height="3.278457354789038" y="82.31614092984319" x="0" fill="#000000" data-fill-palette-color="accent"></rect></g></svg></g><defs></defs></svg><rect width="395.52" height="169.13727236129114" fill="none" stroke="none" visibility="hidden"></rect></g></svg></g></svg>